<svg width="613" height="613" viewBox="0 0 613 613" fill="none" xmlns="http://www.w3.org/2000/svg">
<g clip-path="url(#clip0_2039_888)">
<path d="M237.939 0C106.567 0 0.046875 106.52 0.046875 237.893C0.046875 369.266 106.567 475.786 237.94 475.786C288.458 475.786 335.308 460.029 373.819 433.189V433.161L550.252 609.594C553.526 612.868 558.731 612.952 562.091 609.594L609.641 562.043C612.915 558.769 612.747 553.34 609.641 550.205L433.235 373.8C460.075 335.261 475.832 288.41 475.832 237.893C475.832 106.52 369.312 0 237.939 0ZM237.939 419.811C137.464 419.811 56.0209 338.368 56.0209 237.893C56.0209 137.418 137.465 55.975 237.939 55.975C338.413 55.975 419.857 137.418 419.857 237.893C419.857 338.368 338.414 419.811 237.939 419.811Z" fill="white"/>
<path d="M251.932 139.937H223.945V223.899H139.983V251.886H223.945V335.849H251.932V251.886H335.895V223.899H251.932V139.937Z" fill="white"/>
</g>
<defs>
<clipPath id="clip0_2039_888">
<rect width="612.08" height="612.08" fill="white"/>
</clipPath>
</defs>
</svg>
